<svg id="visual" viewBox="0 0 900 600" width="900" height="600" xmlns="http://www.w3.org/2000/svg" xmlns:xlink="http://www.w3.org/1999/xlink" version="1.1"><rect x="0" y="0" width="900" height="600" fill="#001220"></rect><defs><linearGradient id="grad1_0" x1="33.3%" y1="0%" x2="100%" y2="100%"><stop offset="20%" stop-color="#001220" stop-opacity="1"></stop><stop offset="80%" stop-color="#001220" stop-opacity="1"></stop></linearGradient></defs><defs><linearGradient id="grad2_0" x1="0%" y1="0%" x2="66.7%" y2="100%"><stop offset="20%" stop-color="#001220" stop-opacity="1"></stop><stop offset="80%" stop-color="#001220" stop-opacity="1"></stop></linearGradient></defs><g transform="translate(900, 0)"><path d="M0 486.7C-64.9 482.2 -129.8 477.7 -186.3 449.7C-242.7 421.6 -290.8 370 -316.1 316.1C-341.4 262.1 -344 205.8 -368.6 152.7C-393.3 99.6 -440 49.8 -486.7 0L0 0Z" fill="#6600FF"></path></g><g transform="translate(0, 600)"><path d="M0 -486.7C63.8 -476.6 127.6 -466.5 182.5 -440.7C237.5 -414.9 283.7 -373.5 330.2 -330.2C376.7 -286.9 423.6 -241.6 449.7 -186.3C475.8 -130.9 481.3 -65.5 486.7 0L0 0Z" fill="#6600FF"></path></g></svg>